<svg width="442.2" height="62.4" viewBox="0 0 442.2 62.4" xmlns="http://www.w3.org/2000/svg"><g id="svgGroup" stroke-linecap="round" fill-rule="evenodd" font-size="9pt" stroke="#000" stroke-width="0.75mm" fill="#000" style="stroke:#000;stroke-width:0.75mm;fill:#000"><path d="M 42 50.8 L 42.2 52.3 Q 30.125 60.35 24.53 61.2 A 8.224 8.224 0 0 1 23.3 61.3 A 3.743 3.743 0 0 1 22.271 61.171 Q 20.7 60.721 20.7 58.7 A 5.081 5.081 0 0 1 21.157 56.673 Q 21.919 54.919 23.95 52.95 A 78.836 78.836 0 0 1 28.622 48.758 A 67.996 67.996 0 0 1 30.45 47.3 A 30.157 30.157 0 0 0 31.555 46.412 Q 33.162 45.049 33.565 44.206 A 1.195 1.195 0 0 0 33.7 43.7 Q 33.7 43.325 33.085 43.302 A 2.227 2.227 0 0 0 33 43.3 A 4.684 4.684 0 0 0 31.74 43.537 Q 28.628 44.468 20.5 49.05 A 263.958 263.958 0 0 0 16.377 51.42 Q 10.809 54.693 8.185 56.701 A 20.231 20.231 0 0 0 7.2 57.5 L 3.6 60.5 A 0.887 0.887 0 0 1 3.308 60.682 Q 2.781 60.9 1.6 60.9 Q 0.365 60.9 0.083 60.543 A 0.381 0.381 0 0 1 0 60.3 A 0.628 0.628 0 0 1 0.035 60.104 Q 0.096 59.921 0.261 59.685 A 3.625 3.625 0 0 1 0.4 59.5 Q 10.9 47.7 23.9 34.8 A 380.025 380.025 0 0 1 39.935 19.749 A 311.936 311.936 0 0 1 49.35 11.75 Q 59.466 3.503 64.334 1.957 A 6.624 6.624 0 0 1 66.3 1.6 Q 67.931 1.6 68.453 2.293 A 1.302 1.302 0 0 1 68.7 3.1 Q 68.7 6.3 58.65 15.45 Q 48.6 24.6 36.1 33.8 Q 27.555 40.089 20.646 44.602 A 187.51 187.51 0 0 1 14.6 48.4 A 128.974 128.974 0 0 0 13.393 49.798 Q 11.006 52.606 10.6 53.5 Q 11 53.5 11.2 53.4 Q 17.6 48.9 24.5 45.4 A 116.466 116.466 0 0 1 26.908 44.211 Q 31.697 41.919 33.175 41.9 A 1.905 1.905 0 0 1 33.2 41.9 A 7.235 7.235 0 0 1 34.028 41.944 Q 35.163 42.075 35.65 42.6 A 2.726 2.726 0 0 1 36.052 43.151 A 1.962 1.962 0 0 1 36.3 44.1 A 4.534 4.534 0 0 1 35.893 45.903 Q 35.283 47.313 33.756 48.898 A 19.799 19.799 0 0 1 33.15 49.5 Q 30 52.5 26.8 54.9 Q 23.614 57.289 23.6 58.192 A 0.513 0.513 0 0 0 23.6 58.2 A 1.796 1.796 0 0 0 23.669 58.722 Q 23.844 59.297 24.459 59.447 A 2.074 2.074 0 0 0 24.95 59.5 Q 26.3 59.5 29 58.3 Q 31.7 57.1 33.8 55.85 Q 35.9 54.6 38.85 52.75 Q 41.8 50.9 42 50.8 Z M 226.2 47.8 L 231.7 42.7 Q 232.2 42.3 233.6 42.4 A 3.274 3.274 0 0 1 234.102 42.472 Q 235 42.679 235 43.4 A 0.954 0.954 0 0 1 234.719 44.081 A 1.253 1.253 0 0 1 234.7 44.1 Q 222.695 54.904 221.776 58.205 A 1.864 1.864 0 0 0 221.7 58.7 A 0.63 0.63 0 0 0 221.756 58.977 Q 221.913 59.3 222.5 59.3 Q 227.3 59.3 239.3 49.9 A 17.77 17.77 0 0 1 241.062 46.643 Q 242.484 44.538 244.65 42.4 Q 248.5 38.6 251.3 38.6 A 2.492 2.492 0 0 1 251.64 38.621 Q 252.018 38.673 252.179 38.856 A 0.5 0.5 0 0 1 252.3 39.2 Q 252.3 40.213 250.022 42.613 A 38.702 38.702 0 0 1 249.1 43.55 A 60.092 60.092 0 0 1 246.475 45.976 Q 244.1 48.05 241.1 50.3 Q 240.966 50.703 240.922 51.287 A 8.166 8.166 0 0 0 240.9 51.9 Q 240.9 55.2 243.3 55.2 Q 246.1 55.2 252.6 50.9 L 252.8 52.3 Q 245.965 57.047 242.509 57.287 A 5.176 5.176 0 0 1 242.15 57.3 A 4.705 4.705 0 0 1 242.096 57.3 Q 238.7 57.261 238.7 52.3 L 238.7 52.1 Q 228.472 59.359 223.483 60.63 A 7.729 7.729 0 0 1 221.6 60.9 A 4.657 4.657 0 0 1 220.543 60.791 Q 219.102 60.454 218.852 59.074 A 3.507 3.507 0 0 1 218.8 58.45 A 4.543 4.543 0 0 1 219.101 56.926 Q 219.865 54.802 222.572 51.732 A 40.539 40.539 0 0 1 222.6 51.7 A 218.608 218.608 0 0 1 217.641 54.793 Q 207.86 60.696 204.709 60.798 A 3.362 3.362 0 0 1 204.6 60.8 Q 202.5 60.8 202.5 58.5 A 4.332 4.332 0 0 1 202.845 56.888 Q 203.55 55.134 205.7 52.95 A 88.364 88.364 0 0 1 210.076 48.789 A 74.859 74.859 0 0 1 212.05 47.1 A 41.766 41.766 0 0 0 213.12 46.189 Q 215.2 44.35 215.2 43.7 A 0.957 0.957 0 0 0 215.144 43.36 Q 214.97 42.9 214.25 42.9 Q 213.3 42.9 207.35 46.4 Q 201.4 49.9 197.3 52.8 L 197 51.4 Q 197.737 50.94 199.449 49.801 A 368.646 368.646 0 0 0 199.75 49.6 Q 201.7 48.3 202.8 47.6 Q 203.784 46.974 205.328 46.068 A 162.277 162.277 0 0 1 205.7 45.85 Q 207.5 44.8 208.65 44.15 Q 209.8 43.5 211.1 42.8 Q 213.576 41.657 215.236 41.603 A 5.003 5.003 0 0 1 215.4 41.6 A 3.326 3.326 0 0 1 216.476 41.759 Q 217.956 42.265 217.999 44.373 A 6.258 6.258 0 0 1 218 44.5 A 3.713 3.713 0 0 1 217.49 46.179 Q 215.788 49.398 208.4 55.4 A 52.237 52.237 0 0 0 207.353 56.272 Q 205.2 58.117 205.2 58.65 A 1.021 1.021 0 0 0 205.228 58.899 Q 205.329 59.3 205.8 59.3 A 5.094 5.094 0 0 0 207.431 58.896 Q 211.215 57.465 221.341 50.967 A 428.795 428.795 0 0 0 226.2 47.8 Z M 327.3 50.8 L 327.5 52.3 Q 315.452 60.181 309.804 60.923 A 8.502 8.502 0 0 1 308.7 61 Q 306.405 61 306.061 59.194 A 3.71 3.71 0 0 1 306 58.5 A 6.028 6.028 0 0 1 306.345 56.588 Q 306.922 54.869 308.466 52.758 A 27.891 27.891 0 0 1 309.2 51.8 Q 300.248 58.4 294.232 60.051 A 14.23 14.23 0 0 1 290.7 60.6 Q 288.3 60.6 288.3 57.7 A 9.688 9.688 0 0 1 289.315 53.531 Q 290.898 50.195 294.95 46.6 A 22.764 22.764 0 0 1 305.361 41.429 A 33.124 33.124 0 0 1 312.5 40.7 Q 316.2 40.7 318.8 42.2 A 9.768 9.768 0 0 0 319.167 41.89 Q 319.541 41.559 320 41.1 L 361.8 0.6 Q 362.4 0 364.2 0 A 4.405 4.405 0 0 1 364.812 0.039 Q 365.508 0.137 365.797 0.485 A 0.932 0.932 0 0 1 366 1.1 A 0.838 0.838 0 0 1 365.921 1.443 Q 365.812 1.688 365.55 1.95 A 10.184 10.184 0 0 1 365.309 2.18 Q 364.752 2.7 363.279 4.002 A 456.344 456.344 0 0 1 362.6 4.6 Q 360.1 6.8 357.75 8.95 Q 355.4 11.1 351.2 15 Q 347 18.9 342.9 22.9 A 1297.767 1297.767 0 0 0 339.614 26.118 Q 338.157 27.55 336.554 29.133 A 2420.876 2420.876 0 0 0 333.2 32.45 Q 328.913 36.699 326.003 39.659 A 354.791 354.791 0 0 0 324.35 41.35 Q 321.443 44.347 319.416 46.343 A 156.744 156.744 0 0 1 318.95 46.8 Q 317.472 48.244 316.301 49.428 A 131.391 131.391 0 0 0 315.3 50.45 Q 313.8 52 312.1 53.8 Q 310.958 55.009 310.177 56.016 A 16.081 16.081 0 0 0 309.5 56.95 Q 308.794 58.009 308.642 58.73 A 1.798 1.798 0 0 0 308.6 59.1 A 1.33 1.33 0 0 0 308.631 59.402 Q 308.727 59.814 309.122 59.885 A 1.002 1.002 0 0 0 309.3 59.9 A 9.267 9.267 0 0 0 312.005 59.402 Q 317.187 57.772 327.3 50.8 Z M 442 50.8 L 442.2 52.3 Q 430.125 60.35 424.53 61.2 A 8.224 8.224 0 0 1 423.3 61.3 A 3.906 3.906 0 0 1 422.287 61.18 Q 420.7 60.753 420.7 58.8 A 3.474 3.474 0 0 1 420.951 57.562 Q 421.348 56.525 422.369 55.3 A 15.846 15.846 0 0 1 422.85 54.75 Q 425 52.4 427.5 50.4 Q 434.07 45.449 434.384 43.671 A 0.981 0.981 0 0 0 434.4 43.5 A 0.384 0.384 0 0 0 434.176 43.151 Q 433.904 43 433.3 43 A 10.2 10.2 0 0 0 431.007 43.299 Q 428.721 43.833 425.576 45.32 A 62.132 62.132 0 0 0 422.3 47 Q 415 51 406.1 60 Q 405.589 60.511 404.315 60.587 A 7.86 7.86 0 0 1 403.85 60.6 Q 402.828 60.6 402.439 60.254 A 0.707 0.707 0 0 1 402.2 59.7 A 0.516 0.516 0 0 1 402.308 59.519 Q 402.952 58.659 407.452 54.001 A 772.02 772.02 0 0 1 409.1 52.3 Q 416 45.2 416 43.1 A 0.542 0.542 0 0 0 415.957 42.876 Q 415.852 42.644 415.495 42.607 A 1.412 1.412 0 0 0 415.35 42.6 A 1.276 1.276 0 0 0 414.999 42.662 Q 414.427 42.832 413.356 43.466 A 27.105 27.105 0 0 0 412.65 43.9 Q 410.6 45.2 406.35 48.05 Q 403.428 50.009 401.097 51.52 A 229.994 229.994 0 0 1 399.1 52.8 L 398.8 51.4 Q 399.948 50.634 401.742 49.4 A 541.229 541.229 0 0 0 402.9 48.6 A 789.282 789.282 0 0 1 404.144 47.741 Q 405.807 46.594 407.028 45.766 A 257.537 257.537 0 0 1 407.2 45.65 Q 408.9 44.5 410.9 43.2 Q 414.8 40.8 416.9 40.8 A 2.803 2.803 0 0 1 417.756 40.92 Q 419 41.319 419 43.05 Q 419 45.296 415.812 49.584 A 40.398 40.398 0 0 1 415.8 49.6 A 77.844 77.844 0 0 1 421.219 46.144 Q 426.712 42.976 430.92 42.066 A 15.089 15.089 0 0 1 434.1 41.7 A 4.621 4.621 0 0 1 435.111 41.801 Q 436.532 42.121 436.758 43.46 A 3.26 3.26 0 0 1 436.8 44 Q 436.8 45.939 435.378 47.985 A 12.416 12.416 0 0 1 434.8 48.75 A 25.194 25.194 0 0 1 430.409 52.993 A 23.843 23.843 0 0 1 430.4 53 Q 424.554 57.202 424.048 58.567 A 0.679 0.679 0 0 0 424 58.8 A 0.581 0.581 0 0 0 424.344 59.356 Q 424.629 59.5 425.15 59.5 Q 426.217 59.5 428.617 58.468 A 34.82 34.82 0 0 0 429 58.3 Q 431.7 57.1 433.8 55.85 Q 435.9 54.6 438.85 52.75 A 939.099 939.099 0 0 1 439.545 52.315 Q 441.825 50.888 442 50.8 Z M 98.1 44 L 100.8 41.8 Q 101.3 41.4 102.7 41.5 A 3.274 3.274 0 0 1 103.202 41.572 Q 104.1 41.779 104.1 42.5 A 0.954 0.954 0 0 1 103.819 43.181 A 1.253 1.253 0 0 1 103.8 43.2 A 307.881 307.881 0 0 0 100.519 46.194 Q 89.8 56.125 89.8 58.4 Q 89.8 59.317 90.912 59.47 A 3.606 3.606 0 0 0 91.4 59.5 A 5.889 5.889 0 0 0 92.507 59.383 Q 93.629 59.166 95.118 58.55 A 24.687 24.687 0 0 0 95.7 58.3 Q 98.4 57.1 100.5 55.85 Q 102.6 54.6 105.55 52.75 Q 108.5 50.9 108.7 50.8 L 108.9 52.3 Q 104.3 55.3 98.4 58.3 Q 92.5 61.3 89.45 61.3 A 5.434 5.434 0 0 1 88.318 61.193 Q 86.4 60.783 86.4 58.8 A 6.285 6.285 0 0 1 86.876 56.537 Q 88.003 53.638 91.8 49.7 A 271.968 271.968 0 0 1 86.334 53.166 Q 75.794 59.661 72.623 59.892 A 3.085 3.085 0 0 1 72.4 59.9 Q 70.334 59.9 70.208 57.607 A 5.607 5.607 0 0 1 70.2 57.3 A 7.353 7.353 0 0 1 71.064 54.119 Q 73.162 49.836 80.355 43.516 A 115.893 115.893 0 0 1 83.2 41.1 Q 83.645 40.744 85.439 40.864 A 19.261 19.261 0 0 1 85.9 40.9 Q 86.928 41.087 86.995 41.318 A 0.116 0.116 0 0 1 87 41.35 A 0.426 0.426 0 0 1 86.971 41.492 Q 86.894 41.703 86.62 42.053 A 6.572 6.572 0 0 1 86.5 42.2 Q 86.028 42.766 82.172 46.539 A 839.214 839.214 0 0 1 81.7 47 Q 72.8 55.7 72.8 57.9 A 0.589 0.589 0 0 0 72.836 58.116 Q 72.937 58.373 73.317 58.397 A 1.292 1.292 0 0 0 73.4 58.4 Q 76.8 58.4 98.1 44 Z M 124.4 56.6 L 125.8 55.9 Q 129.6 53.8 133.9 50.8 L 134.1 52.3 Q 122.328 59.922 114.712 61.792 A 19.065 19.065 0 0 1 110.2 62.4 Q 108.234 62.4 106.889 61.903 A 4.692 4.692 0 0 1 105.35 61 A 5.535 5.535 0 0 1 104.468 60.002 A 3.685 3.685 0 0 1 103.8 57.9 A 5.891 5.891 0 0 1 103.908 56.739 Q 104.05 56.031 104.38 55.476 A 3.421 3.421 0 0 1 104.6 55.15 A 2.913 2.913 0 0 1 105.254 54.512 A 2.308 2.308 0 0 1 106.6 54.1 A 2.021 2.021 0 0 1 107.203 54.182 Q 107.862 54.388 108.037 55.11 A 2.511 2.511 0 0 1 108.1 55.7 A 1.352 1.352 0 0 1 107.799 56.53 Q 107.406 57.047 106.5 57.5 A 0.988 0.988 0 0 0 106.027 58.194 A 1.613 1.613 0 0 0 106 58.5 A 1.117 1.117 0 0 0 106.121 58.98 Q 106.373 59.508 107.15 60.15 A 4.433 4.433 0 0 0 108.175 60.795 A 3.482 3.482 0 0 0 109.6 61.1 Q 113.308 61.1 116.128 57.159 A 18.209 18.209 0 0 0 117.15 55.55 A 36.543 36.543 0 0 0 119.982 49.322 A 29.836 29.836 0 0 0 121.2 44.5 L 121.2 44.2 A 845.951 845.951 0 0 1 117.258 46.867 Q 111.899 50.469 109.153 52.164 A 58.864 58.864 0 0 1 108.1 52.8 L 107.8 51.4 A 445.527 445.527 0 0 0 111.633 48.905 Q 124.2 40.625 124.9 38.7 Q 125.171 38.293 125.511 38.162 A 0.934 0.934 0 0 1 125.85 38.1 Q 126.4 38.1 126.4 38.7 Q 126.4 39.3 125.8 39.9 Q 125.291 40.409 125.034 42.679 A 28.324 28.324 0 0 0 124.95 43.55 A 25.499 25.499 0 0 1 124.615 46.02 Q 124.389 47.264 124.032 48.668 A 56.382 56.382 0 0 1 123.4 50.95 Q 122.1 55.3 118.9 58.8 A 0.16 0.16 0 0 0 118.998 58.949 Q 119.076 58.989 119.215 58.998 A 1.347 1.347 0 0 0 119.3 59 Q 120 59 124.4 56.6 Z M 173.4 56.6 L 174.8 55.9 Q 178.6 53.8 182.9 50.8 L 183.1 52.3 Q 171.328 59.922 163.712 61.792 A 19.065 19.065 0 0 1 159.2 62.4 Q 157.234 62.4 155.889 61.903 A 4.692 4.692 0 0 1 154.35 61 A 5.535 5.535 0 0 1 153.468 60.002 A 3.685 3.685 0 0 1 152.8 57.9 A 5.891 5.891 0 0 1 152.908 56.739 Q 153.05 56.031 153.38 55.476 A 3.421 3.421 0 0 1 153.6 55.15 A 2.913 2.913 0 0 1 154.254 54.512 A 2.308 2.308 0 0 1 155.6 54.1 A 2.021 2.021 0 0 1 156.203 54.182 Q 156.862 54.388 157.037 55.11 A 2.511 2.511 0 0 1 157.1 55.7 A 1.352 1.352 0 0 1 156.799 56.53 Q 156.406 57.047 155.5 57.5 A 0.988 0.988 0 0 0 155.027 58.194 A 1.613 1.613 0 0 0 155 58.5 A 1.117 1.117 0 0 0 155.121 58.98 Q 155.373 59.508 156.15 60.15 A 4.433 4.433 0 0 0 157.175 60.795 A 3.482 3.482 0 0 0 158.6 61.1 Q 162.308 61.1 165.128 57.159 A 18.209 18.209 0 0 0 166.15 55.55 A 36.543 36.543 0 0 0 168.982 49.322 A 29.836 29.836 0 0 0 170.2 44.5 L 170.2 44.2 A 845.951 845.951 0 0 1 166.258 46.867 Q 160.899 50.469 158.153 52.164 A 58.864 58.864 0 0 1 157.1 52.8 L 156.8 51.4 A 445.527 445.527 0 0 0 160.633 48.905 Q 173.2 40.625 173.9 38.7 Q 174.171 38.293 174.511 38.162 A 0.934 0.934 0 0 1 174.85 38.1 Q 175.4 38.1 175.4 38.7 Q 175.4 39.3 174.8 39.9 Q 174.291 40.409 174.034 42.679 A 28.324 28.324 0 0 0 173.95 43.55 A 25.499 25.499 0 0 1 173.615 46.02 Q 173.389 47.264 173.032 48.668 A 56.382 56.382 0 0 1 172.4 50.95 Q 171.1 55.3 167.9 58.8 A 0.16 0.16 0 0 0 167.998 58.949 Q 168.076 58.989 168.215 58.998 A 1.347 1.347 0 0 0 168.3 59 Q 169 59 173.4 56.6 Z M 65.9 3.219 A 2.224 2.224 0 0 0 65.6 3.2 A 5.428 5.428 0 0 0 63.49 3.79 Q 58.774 5.935 47.649 15.879 A 311.829 311.829 0 0 0 45.85 17.5 Q 30.1 31.8 17.6 45.2 A 263.119 263.119 0 0 0 30.755 36.086 Q 39.569 29.6 49.3 21.5 A 318.509 318.509 0 0 0 54.959 16.687 Q 65.293 7.666 66.453 4.585 A 1.983 1.983 0 0 0 66.6 3.9 Q 66.6 3.314 65.9 3.219 Z M 157.7 50.8 L 157.9 52.3 Q 147.202 59.825 139.298 60.528 A 18.047 18.047 0 0 1 137.7 60.6 A 10.52 10.52 0 0 1 135.473 60.386 Q 131.7 59.565 131.7 55.6 A 7.987 7.987 0 0 1 132.792 51.713 Q 134.243 49.092 137.621 46.367 A 37.386 37.386 0 0 1 139.15 45.2 A 30.409 30.409 0 0 1 145.755 41.509 A 23.505 23.505 0 0 1 154.5 39.8 Q 156.131 39.8 156.698 40.439 A 1.249 1.249 0 0 1 157 41.3 A 2.868 2.868 0 0 1 156.536 42.767 Q 155.506 44.485 152.187 46.594 A 37.59 37.59 0 0 1 151.45 47.05 A 31.334 31.334 0 0 1 146.371 49.483 Q 142.244 51.05 136.9 52 Q 135.178 53.968 134.868 55.465 A 3.13 3.13 0 0 0 134.8 56.1 Q 134.8 59 138.8 59 Q 145.587 59 155.324 52.461 A 79.754 79.754 0 0 0 157.7 50.8 Z M 276.4 50.8 L 276.6 52.3 Q 265.902 59.825 257.998 60.528 A 18.047 18.047 0 0 1 256.4 60.6 A 10.52 10.52 0 0 1 254.173 60.386 Q 250.4 59.565 250.4 55.6 A 7.987 7.987 0 0 1 251.492 51.713 Q 252.943 49.092 256.321 46.367 A 37.386 37.386 0 0 1 257.85 45.2 A 30.409 30.409 0 0 1 264.455 41.509 A 23.505 23.505 0 0 1 273.2 39.8 Q 274.831 39.8 275.398 40.439 A 1.249 1.249 0 0 1 275.7 41.3 A 2.868 2.868 0 0 1 275.236 42.767 Q 274.206 44.485 270.887 46.594 A 37.59 37.59 0 0 1 270.15 47.05 A 31.334 31.334 0 0 1 265.071 49.483 Q 260.944 51.05 255.6 52 Q 253.878 53.968 253.568 55.465 A 3.13 3.13 0 0 0 253.5 56.1 Q 253.5 59 257.5 59 Q 264.287 59 274.024 52.461 A 79.754 79.754 0 0 0 276.4 50.8 Z M 367.9 50.8 L 368.1 52.3 Q 357.402 59.825 349.498 60.528 A 18.047 18.047 0 0 1 347.9 60.6 A 10.52 10.52 0 0 1 345.673 60.386 Q 341.9 59.565 341.9 55.6 A 7.987 7.987 0 0 1 342.992 51.713 Q 344.443 49.092 347.821 46.367 A 37.386 37.386 0 0 1 349.35 45.2 A 30.409 30.409 0 0 1 355.955 41.509 A 23.505 23.505 0 0 1 364.7 39.8 Q 366.331 39.8 366.898 40.439 A 1.249 1.249 0 0 1 367.2 41.3 A 2.868 2.868 0 0 1 366.736 42.767 Q 365.706 44.485 362.387 46.594 A 37.59 37.59 0 0 1 361.65 47.05 A 31.334 31.334 0 0 1 356.571 49.483 Q 352.444 51.05 347.1 52 Q 345.378 53.968 345.068 55.465 A 3.13 3.13 0 0 0 345 56.1 Q 345 59 349 59 Q 355.787 59 365.524 52.461 A 79.754 79.754 0 0 0 367.9 50.8 Z M 61.4 51.4 L 61.4 52.2 Q 61.4 55.045 63.555 55.437 A 4.161 4.161 0 0 0 64.3 55.5 A 5.193 5.193 0 0 0 65.89 55.233 Q 66.566 55.016 67.289 54.622 A 11.959 11.959 0 0 0 68.3 54 L 73.2 50.8 L 73.4 52.3 L 68.8 55.2 Q 65.6 57.3 62.55 57.3 A 4.528 4.528 0 0 1 60.825 56.99 Q 59.645 56.508 58.96 55.278 A 5.992 5.992 0 0 1 58.5 54.2 A 38.35 38.35 0 0 1 53.821 57.79 Q 51.177 59.49 48.626 60.367 A 16.326 16.326 0 0 1 43.3 61.3 A 6.512 6.512 0 0 1 41.625 61.104 Q 39.481 60.532 39.088 58.29 A 6.322 6.322 0 0 1 39 57.2 Q 39 52.003 45.093 46.356 A 36.808 36.808 0 0 1 45.1 46.35 Q 51.2 40.7 59.8 40.7 A 12.019 12.019 0 0 1 61.601 40.823 Q 63.983 41.186 64.743 42.62 A 3.326 3.326 0 0 1 65.1 44.2 A 6.305 6.305 0 0 1 64.673 46.378 Q 63.991 48.226 62.219 50.428 A 28.393 28.393 0 0 1 61.4 51.4 Z M 344.1 50.8 L 344.3 52.3 Q 339.7 55.3 333.8 58.3 Q 327.9 61.3 324.85 61.3 A 5.434 5.434 0 0 1 323.718 61.193 Q 321.8 60.783 321.8 58.8 A 3.809 3.809 0 0 1 322.052 57.538 Q 322.685 55.765 324.906 53.044 A 42.325 42.325 0 0 1 325.4 52.45 Q 329 48.2 332.6 45 L 336.2 41.8 Q 336.7 41.4 338.1 41.5 A 3.274 3.274 0 0 1 338.602 41.572 Q 339.5 41.779 339.5 42.5 A 0.954 0.954 0 0 1 339.219 43.181 A 1.253 1.253 0 0 1 339.2 43.2 Q 326.734 54.466 325.779 57.972 A 2.027 2.027 0 0 0 325.7 58.5 Q 325.7 59.5 327.05 59.5 Q 328.4 59.5 331.1 58.3 Q 333.8 57.1 335.9 55.85 Q 338 54.6 340.95 52.75 Q 343.9 50.9 344.1 50.8 Z M 399.7 50.8 L 399.9 52.3 Q 395.3 55.3 389.4 58.3 Q 383.5 61.3 380.45 61.3 A 5.434 5.434 0 0 1 379.318 61.193 Q 377.4 60.783 377.4 58.8 A 3.809 3.809 0 0 1 377.652 57.538 Q 378.285 55.765 380.506 53.044 A 42.325 42.325 0 0 1 381 52.45 Q 384.6 48.2 388.2 45 L 391.8 41.8 Q 392.3 41.4 393.7 41.5 A 3.274 3.274 0 0 1 394.202 41.572 Q 395.1 41.779 395.1 42.5 A 0.954 0.954 0 0 1 394.819 43.181 A 1.253 1.253 0 0 1 394.8 43.2 Q 382.334 54.466 381.379 57.972 A 2.027 2.027 0 0 0 381.3 58.5 Q 381.3 59.5 382.65 59.5 Q 384 59.5 386.7 58.3 Q 389.4 57.1 391.5 55.85 Q 393.6 54.6 396.55 52.75 Q 399.5 50.9 399.7 50.8 Z M 291.9 59 A 9.559 9.559 0 0 0 294.212 58.679 Q 296.469 58.112 299.471 56.538 A 49.703 49.703 0 0 0 301.6 55.35 Q 307.8 51.7 312.35 47.95 A 115.722 115.722 0 0 0 313.416 47.061 Q 316.9 44.119 316.9 43.55 A 0.637 0.637 0 0 0 316.698 43.1 Q 316.363 42.754 315.468 42.505 A 7.155 7.155 0 0 0 315.45 42.5 Q 314 42.1 311.5 42.1 A 8.689 8.689 0 0 0 309.781 42.291 Q 307.719 42.709 304.9 44.05 Q 300.8 46 297.8 48.7 A 47.099 47.099 0 0 0 295.07 51.354 A 34.479 34.479 0 0 0 292.8 54 A 23.067 23.067 0 0 0 292.021 55.071 Q 290.8 56.863 290.8 57.8 Q 290.8 59 291.9 59 Z M 58.3 52.4 L 58.3 52.3 A 10.371 10.371 0 0 1 59.986 46.708 Q 61.085 44.957 62.9 43.3 A 1.432 1.432 0 0 0 62.52 42.63 Q 62.087 42.211 61.246 42.2 A 3.494 3.494 0 0 0 61.2 42.2 Q 53.8 42.2 48.1 47.75 Q 43.461 52.267 42.598 55.889 A 6.936 6.936 0 0 0 42.4 57.5 Q 42.4 59.6 44.3 59.6 Q 50.498 59.6 56.4 54.265 A 33.768 33.768 0 0 0 58.3 52.4 Z M 154.4 42 A 0.639 0.639 0 0 0 154.006 41.403 Q 153.695 41.245 153.139 41.21 A 5.386 5.386 0 0 0 152.8 41.2 A 3.206 3.206 0 0 0 151.942 41.346 Q 150.128 41.867 146.3 44.25 Q 141.4 47.3 138 50.8 Q 144.7 49.7 149.55 46.75 Q 153.542 44.322 154.248 42.673 A 1.711 1.711 0 0 0 154.4 42 Z M 273.1 42 A 0.639 0.639 0 0 0 272.706 41.403 Q 272.395 41.245 271.839 41.21 A 5.386 5.386 0 0 0 271.5 41.2 A 3.206 3.206 0 0 0 270.642 41.346 Q 268.828 41.867 265 44.25 Q 260.1 47.3 256.7 50.8 Q 263.4 49.7 268.25 46.75 Q 272.242 44.322 272.948 42.673 A 1.711 1.711 0 0 0 273.1 42 Z M 364.6 42 A 0.639 0.639 0 0 0 364.206 41.403 Q 363.895 41.245 363.339 41.21 A 5.386 5.386 0 0 0 363 41.2 A 3.206 3.206 0 0 0 362.142 41.346 Q 360.328 41.867 356.5 44.25 Q 351.6 47.3 348.2 50.8 Q 354.9 49.7 359.75 46.75 Q 363.742 44.322 364.448 42.673 A 1.711 1.711 0 0 0 364.6 42 Z M 347.306 33.765 A 2.664 2.664 0 0 0 347.7 32.4 Q 347.7 31.3 346.35 31.3 A 2.562 2.562 0 0 0 346.346 31.3 Q 344.997 31.302 343.4 32.75 A 9.869 9.869 0 0 0 342.964 33.169 Q 342.264 33.886 341.985 34.512 A 1.936 1.936 0 0 0 341.8 35.3 Q 341.8 36.4 343.15 36.4 A 3.265 3.265 0 0 0 344.193 36.219 Q 344.669 36.059 345.172 35.757 A 8.005 8.005 0 0 0 346.1 35.1 A 6.605 6.605 0 0 0 346.668 34.584 Q 347.063 34.179 347.306 33.765 Z M 402.906 33.765 A 2.664 2.664 0 0 0 403.3 32.4 Q 403.3 31.3 401.95 31.3 A 2.562 2.562 0 0 0 401.946 31.3 Q 400.597 31.302 399 32.75 A 9.869 9.869 0 0 0 398.564 33.169 Q 397.864 33.886 397.585 34.512 A 1.936 1.936 0 0 0 397.4 35.3 Q 397.4 36.4 398.75 36.4 A 3.265 3.265 0 0 0 399.793 36.219 Q 400.269 36.059 400.772 35.757 A 8.005 8.005 0 0 0 401.7 35.1 A 6.605 6.605 0 0 0 402.268 34.584 Q 402.663 34.179 402.906 33.765 Z" vector-effect="non-scaling-stroke"/></g></svg>